<?xml version="1.0" encoding="utf-8"?>
<!-- Generator: Adobe Illustrator 16.0.0, SVG Export Plug-In . SVG Version: 6.00 Build 0)  -->
<!DOCTYPE svg PUBLIC "-//W3C//DTD SVG 1.1//EN" "http://www.w3.org/Graphics/SVG/1.1/DTD/svg11.dtd">
<svg version="1.1" id="Layer_1" xmlns="http://www.w3.org/2000/svg" xmlns:xlink="http://www.w3.org/1999/xlink" x="0px" y="0px"
	 width="841.889px" height="595.281px" viewBox="0 0 841.889 595.281" enable-background="new 0 0 841.889 595.281"
	 xml:space="preserve">
<title>Asset 1-logo</title>
<g id="Layer_2">
	<g id="Layer_1-2">
		<path fill="#0F0F0F" d="M138.7,294.844c23.062-6.198,55.729-22.285,55.729-61.494c0-18.999-8.274-37.161-23.063-47.05
			c-12.801-9.082-31.021-14.04-61.984-14.04H3.316v11.531c33.011,2.479,34.597,4.93,34.597,39.209v166.35
			c0,34.596-2.479,37.133-37.97,39.611v11.531h91.275c32.606,0,59.851-4.958,80.896-16.521
			c24.361-13.606,39.642-34.596,39.642-62.301c0-41.284-32.203-59.446-73.055-65.646V294.844L138.7,294.844z M740.927,440.55
			h-91.996v-10.725c25.947-2.479,29.724-4.958,29.724-32.202V202.386c0-28.08-2.479-29.32-28.482-31.367v-9.946
			c20.789-2.777,41.252-7.605,61.09-14.415v191.949h7.871c16.808,0,27.733-1.441,35.979-8.043
			c12.858-9.89,18.134-21.248,18.134-39.064c0-21.681-8.39-35.058-20.814-42.207l1.44-3.258l20.873-7.121
			c2.556,1.237,5.029,2.634,7.409,4.181c13.204,8.648,21.796,23.438,21.796,43.244c0,28.397-17.5,45.897-41.919,56.449
			c5.622,10.897,19.46,33.011,29.378,47.856c11.878,17.299,18.479,25.746,26.727,34.338c6.136,7.487,14.431,12.903,23.755,15.51
			l-0.604,4.008c-2.45,2.883-5.305,4.209-11.271,4.267h-0.98c-25.023-1.297-44.629-8.647-59.477-30.04
			c-11.531-16.174-23.438-36.644-33.327-52.815c-5.766-9.226-12.166-13.177-22.4-13.177h-2.565v44.89
			c0,27.244,3.287,29.723,29.724,32.202L740.927,440.55z M403.616,207.951c0.175-0.49-0.663-1.24-1.7-1.24
			c-0.336-0.043-0.666,0.101-0.864,0.375c-3.625,7.493-11.033,12.428-19.346,12.887h-10.32c-2.737,0.31-5.206-1.659-5.517-4.396
			c-0.045-0.397-0.042-0.8,0.011-1.196v-23.295h11.964c4.93,0,7.669,1.211,8.648,10.408c0,0.374,0.576,0.778,1.326,0.778
			c0.749,0,1.326-0.404,1.326-0.778c0-4.729-0.548-7.294-0.548-11.734c0-4.438,0.548-6.919,0.548-11.531
			c0-0.462-0.663-0.75-1.326-0.75s-1.326,0.288-1.326,0.75c-1.125,9.196-3.862,9.946-8.648,9.946h-11.993V166.84
			c-0.413-2.755,1.486-5.323,4.242-5.736c0.419-0.062,0.844-0.072,1.265-0.029h9.571c7.065-0.46,13.42,4.281,14.991,11.187
			c0.171,0.418,0.587,0.684,1.037,0.663c1.038,0,1.787-0.462,1.614-1.125c-1.431-4.713-2.48-9.533-3.143-14.415
			c-5.968,0.289-18.191,0.577-24.534,0.577c-6.342,0-18.479-0.288-24.447-0.577c-0.489,0-0.777,0.663-0.777,1.326
			s0.287,1.326,0.777,1.326c9.168,1.153,9.744,3.143,9.744,8.072v44.859c0,4.844-0.576,6.92-9.744,7.957
			c-0.489,0-0.777,0.577-0.777,1.326c0,0.75,0.287,1.326,0.777,1.326c5.969-0.173,19.144-0.576,25.399-0.576
			s19.518,0.403,25.485,0.576C399.057,218.226,401.156,213.005,403.616,207.951z M438.214,211.352
			c0-11.532-20.846-11.849-20.846-20.671c0-4.065,2.278-6.429,7.382-6.429c4.168,0.244,7.483,3.585,7.696,7.755
			c0,0.49,0.635,0.778,1.326,0.778c0.692,0,1.413-0.375,1.326-0.778c-0.288-2.883-0.49-6.141-0.576-9.456
			c-1.903,0-5.968-1.326-10.148-1.326c-7.581,0-14.415,5.305-14.415,12.108c0,13.954,20.471,11.964,20.471,21.248
			c0.339,3.742-2.419,7.051-6.161,7.391c-0.444,0.04-0.892,0.036-1.335-0.011c-5.046-0.467-9.347-3.854-10.984-8.648
			c0-0.49-0.663-0.779-1.326-0.779c-0.662,0-1.411,0.404-1.325,0.779c0.489,2.45,1.325,6.717,1.7,10.032
			c2.884,0,7.697,1.701,11.85,1.701C431.034,224.989,438.214,219.309,438.214,211.352z M472.521,185.867
			c0-1.441-0.489-2.566-1.239-2.566h-13.925l0.375-9.109c0-0.375-0.663-0.75-1.326-0.75c-0.544-0.004-1.049,0.281-1.326,0.75
			c-3.029,4.438-6.959,8.19-11.531,11.013c-0.499,0.304-0.82,0.83-0.865,1.412c-0.034,0.623,0.42,1.165,1.038,1.24h3.604
			c0.669,0.028,1.188,0.594,1.158,1.262c-0.001,0.021-0.003,0.043-0.005,0.064l-0.201,23.063
			c-0.647,6.176,3.833,11.708,10.009,12.355c0.611,0.064,1.228,0.078,1.841,0.042c4.062,0.057,7.997-1.427,11.013-4.152
			c0.279-0.287,0.442-0.666,0.462-1.066c0-0.836-0.663-1.787-1.153-1.499c-2.104,1.282-4.545,1.904-7.006,1.787
			c-4.438,0-6.343-2.883-6.343-8.908V188.03l14.127,0.375c0.836,0,1.326-1.038,1.326-2.537L472.521,185.867L472.521,185.867z
			 M501.754,203.165l-0.374,12.685c-1.827,2.762-4.936,4.402-8.245,4.354c-3.316,0-5.219-2.45-5.219-6.717
			c0.028-5.824,6.774-8.562,13.866-10.177L501.754,203.165z M518.244,219.252c0-1.124-0.95-1.989-1.413-1.586
			c-0.954,1.061-2.271,1.728-3.688,1.874c-1.441,0-3.315-0.749-3.229-5.305l0.663-21.42c0.611-5.86-3.644-11.105-9.503-11.717
			c-0.674-0.07-1.354-0.076-2.027-0.018c-7.296,0-18.941,6.631-18.941,11.532c-0.067,1.766,1.31,3.252,3.075,3.319
			c0.108,0.004,0.218,0.003,0.326-0.004c2.883,0,5.593-1.989,5.767-6.429c0-2.884,3.344-4.758,6.746-4.758
			c3.401,0,6.256,2.884,6.169,7.669l-0.288,7.409c-6.17,1.615-23.062,6.257-23.062,15.741c-0.024,5.048,4.048,9.159,9.095,9.183
			c0.188,0.001,0.376-0.004,0.562-0.015c4.939,0.125,9.721-1.746,13.263-5.189c1.073,3.105,4.07,5.127,7.353,4.959
			c3.389-0.084,6.562-1.682,8.648-4.354c0.256-0.181,0.439-0.446,0.52-0.749L518.244,219.252z M548.777,185.867
			c0-1.441-0.462-2.566-1.24-2.566h-13.925l0.375-9.109c0-0.375-0.663-0.75-1.326-0.75c-0.54,0.013-1.037,0.294-1.325,0.75
			c-3.03,4.438-6.959,8.19-11.532,11.013c-0.491,0.308-0.803,0.834-0.836,1.412c-0.05,0.628,0.412,1.179,1.038,1.24h3.604
			c0.652,0.026,1.159,0.577,1.133,1.229c-0.002,0.032-0.004,0.064-0.009,0.097l-0.173,23.063
			c-0.664,6.158,3.788,11.689,9.946,12.354c0.632,0.067,1.269,0.082,1.902,0.043c4.055,0.052,7.979-1.431,10.984-4.152
			c0.291-0.278,0.457-0.663,0.461-1.066c0-0.836-0.663-1.787-1.124-1.499c-2.104,1.282-4.545,1.904-7.006,1.787
			c-4.469,0-6.372-2.883-6.372-8.908V188.03l14.127,0.375C548.315,188.404,548.777,187.366,548.777,185.867z M592.021,196.677
			c-0.704-8.948-8.326-15.758-17.298-15.452c-12.512,0-20.182,10.695-20.182,22.17c0,12.022,8.649,21.594,20.182,21.594
			c6.873-0.308,13.15-3.986,16.779-9.831c0.183-0.219,0.283-0.493,0.287-0.778c0-1.326-1.152-2.076-1.44-1.614
			c-2.971,3.825-7.472,6.155-12.312,6.371c-8.418,0-13.925-5.218-13.925-15.827c-0.007-1.782,0.091-3.563,0.288-5.334h25.947
			c0.865,0,1.528-0.461,1.528-1.298L592.021,196.677L592.021,196.677z M583.371,192.498c0,1.527-0.777,2.364-5.507,2.45
			l-13.175,0.375c1.124-5.968,4.643-11.07,9.946-11.07c4.498-0.256,8.353,3.185,8.606,7.684c0.012,0.187,0.016,0.374,0.014,0.562
			L583.371,192.498L583.371,192.498z M638.149,383.093c-15.626,20.786-28.195,28.022-45.666,31.107
			c-22.747,4.007-64.003-4.584-73.978-61.091c-7.728-42.697,11.964-69.222,38.747-73.834c15.213-2.556,30.825,0.852,43.591,9.515
			c4.209,2.595,6.485,3.459,8.647,3.113c4.47-0.808,11.851-11.302,10.321-19.864c-0.778-4.468-2.652-7.899-8.648-11.531
			c-7.438-4.123-21.796-7.063-38.056-4.181c-16.26,2.882-39.41,13.349-57.66,33.327c-23.523,25.948-32.462,52.528-26.927,83.809
			c7.669,43.505,45.062,79.657,96.263,70.634c23.986-4.237,48.061-26.928,61.812-53.651L638.149,383.093z M479.729,424.463
			l-4.036-10.753c-4.486,2.744-9.594,4.312-14.848,4.556c-7.034,0-14.415-6.199-14.415-24.766v-76.745
			c0-21.479-4.151-38.401-18.595-50.366c-9.688-7.45-21.628-11.375-33.848-11.128c-23.523,4.526-50.365,20.613-61.896,28.83
			c-7.843,5.766-13.204,10.32-13.204,16.49c0,9.514,10.725,17.76,18.163,17.76c5.877,0.191,10.956-4.067,11.791-9.889
			c3.286-12.368,7.006-21.45,12.367-26.812c4.632-5.425,11.497-8.422,18.624-8.13c20.644,0,34.597,16.923,34.597,46.618v7.438
			c-9.081,7.438-39.208,18.565-63.975,26.84c-22.688,7.842-33.441,20.643-33.441,40.853c-0.287,27.528,21.796,50.077,49.324,50.364
			c0.067,0,0.137,0.001,0.205,0.001c12.396,0,32.202-15.279,48.723-26.437c1.694,6.926,5.095,13.316,9.889,18.595
			c5.477,4.6,12.27,7.346,19.402,7.842L479.729,424.463z M414.516,405.868c-7.842,7.438-22.285,14.415-33.011,14.876
			c-12.801,0-29.319-10.321-29.319-31.713c0-14.848,9.081-22.689,25.197-30.127c8.647-4.123,28.455-12.801,37.133-17.299V405.868z
			 M306.029,440.464v-10.639c-26.379-2.479-29.724-4.958-29.724-32.202V146.658c-19.838,6.81-40.301,11.638-61.09,14.415v9.946
			c25.946,2.047,28.482,3.287,28.482,31.367v195.236c0,27.244-3.719,29.723-29.724,32.202v10.725L306.029,440.464z M72.652,304.761
			h18.971c50.365,0,79.253,18.566,79.253,61.091c0,42.523-30.127,60.255-63.974,60.542c-26.407,0-34.25-7.842-34.25-37.479V304.761z
			 M72.652,291.125v-80.896c0-13.637,1.644-18.163,5.362-20.643c3.719-2.479,13.204-4.122,23.524-4.122
			c39.209,0,54.776,24.765,54.776,52.815c0,34.597-18.971,52.846-64.377,52.846H72.652z"/>
	</g>
</g>
</svg>
